PathFileType        4      (X/Y/Z)      C:\Users\pc\Desktop\IMUTRC\Sujet_03\Sujet_03_velo_100.trc         
DataRate	CameraRate	NumFrames	NumMarkers	Units	OrigDataRate	OrigDataStartFrame	OrigNumFrames
60.0	60.0	4	64	mm	60.0	356	947
Frame#	Time	pHipOrigin			pRightASI			pLeftASI			pRightCSI			pLeftCSI			pRightIschialTub			pLeftIschialTub			pSacrum			pL5SpinalProcess			pL3SpinalProcess			pT12SpinalProcess			pIJ			pT4SpinalProcess			pT8SpinalProcess			pPX			pC7SpinalProcess			pTopOfHead			pRightAuricularis			pLeftAuricularis			pBackOfHead			pRightAcromion			pLeftAcromion			pRightArmLatEpicondyle			pRightArmMedEpicondyle			pLeftArmLatEpicondyle			pLeftArmMedEpicondyle			pRightUlnarStyloid			pRightRadialStyloid			pRightOlecranon			pLeftUlnarStyloid			pLeftRadialStyloid			pLeftOlecranon			pRightTopOfHand			pRightPinky			pRightBallHand			pLeftTopOfHand			pLeftPinky			pLeftBallHand			pRightGreaterTrochanter			pRightKneeLatEpicondyle			pRightKneeMedEpicondyle			pRightPatella			pLeftGreaterTrochanter			pLeftKneeLatEpicondyle			pLeftKneeMedEpicondyle			pLeftPatella			pRightTibialTub			pRightLatMalleolus			pRightMedMalleolus			pLeftTibialTub			pLeftLatMalleolus			pLeftMedMalleolus			pRightHeelFoot			pRightFirstMetatarsal			pRightFifthMetatarsal			pRightPivotFoot			pRightHeelCenter			pRightToe			pLeftHeelFoot			pLeftFirstMetatarsal			pLeftFifthMetatarsal			pLeftPivotFoot			pLeftHeelCenter			pLeftToe			
		X1	Y1	Z1	X2	Y2	Z2	X3	Y3	Z3	X4	Y4	Z4	X5	Y5	Z5	X6	Y6	Z6	X7	Y7	Z7	X8	Y8	Z8	X9	Y9	Z9	X10	Y10	Z10	X11	Y11	Z11	X12	Y12	Z12	X13	Y13	Z13	X14	Y14	Z14	X15	Y15	Z15	X16	Y16	Z16	X17	Y17	Z17	X18	Y18	Z18	X19	Y19	Z19	X20	Y20	Z20	X21	Y21	Z21	X22	Y22	Z22	X23	Y23	Z23	X24	Y24	Z24	X25	Y25	Z25	X26	Y26	Z26	X27	Y27	Z27	X28	Y28	Z28	X29	Y29	Z29	X30	Y30	Z30	X31	Y31	Z31	X32	Y32	Z32	X33	Y33	Z33	X34	Y34	Z34	X35	Y35	Z35	X36	Y36	Z36	X37	Y37	Z37	X38	Y38	Z38	X39	Y39	Z39	X40	Y40	Z40	X41	Y41	Z41	X42	Y42	Z42	X43	Y43	Z43	X44	Y44	Z44	X45	Y45	Z45	X46	Y46	Z46	X47	Y47	Z47	X48	Y48	Z48	X49	Y49	Z49	X50	Y50	Z50	X51	Y51	Z51	X52	Y52	Z52	X53	Y53	Z53	X54	Y54	Z54	X55	Y55	Z55	X56	Y56	Z56	X57	Y57	Z57	X58	Y58	Z58	X59	Y59	Z59	X60	Y60	Z60	X61	Y61	Z61	X62	Y62	Z62	X63	Y63	Z63	X64	Y64	Z64	
356	5.917	0.0	1249.98655	7.653960137173716E-14	94.34948000000001	1335.98397	131.61694000000008	93.60066999999998	1318.01264	-142.27301999999992	70.2725	1412.36211	102.70154000000008	69.69649999999999	1397.50121	-123.38007999999992	-70.67571	1214.6199	59.27082000000008	-70.96371	1207.24705	-53.79878999999992	-58.98282	1289.96124	-2.4768199999999174	6.105639999999999	1375.90105	-8.006459999999917	78.73976	1471.34494	-14.284899999999915	146.30505	1557.91836	-19.872139999999916	417.19979	1582.39853	-25.171379999999928	299.57975	1691.78172	-29.030609999999914	221.99199	1636.37012	-24.998579999999915	314.44065	1502.27636	-19.526539999999926	346.52408	1723.57714	-29.779409999999913	593.80265	1824.95387	-69.69649999999993	528.13818	1765.51024	18.374530000000075	498.01317	1764.99184	-122.86167999999992	480.56024	1811.24497	-45.44672999999992	346.17848	1729.56759	178.1004800000001	334.9464	1709.58024	-240.6545199999999	427.51026	1437.7639	173.95325000000005	412.01575	1432.98306	115.54643000000006	414.03177	1420.25337	-232.24485999999993	401.64768	1416.62455	-173.03163999999995	516.5029	1200.911	100.51272000000004	565.57845	1221.64715	108.46158000000004	392.95001	1431.08225	143.82823000000005	511.49166	1183.45808	-182.59330999999995	558.3784	1204.71263	-198.37581999999995	381.89073	1413.85973	-197.33900999999994	696.90739	1087.95659	174.52925	605.95634	1103.2207	135.87937000000002	564.25364	1166.81156	103.21994000000004	673.98243	1075.1117	-294.97171	594.20586	1087.84139	-235.98888999999997	559.24241	1150.33784	-194.63178999999997	27.24500000000001	1241.34649	166.17719000000008	397.84605	1060.48119	147.68746000000002	401.76288	1062.55481	67.79569000000004	416.79658	1103.0479	107.02157000000004	3.51362999999999	1218.13352	-167.90519999999992	208.9167	860.43496	-184.14851999999993	224.23841	858.53415	-105.69675999999995	253.72982	884.33913	-148.83946999999998	433.0975	1012.38485	98.72711000000002	193.36458	664.82396	109.32558000000003	190.59977	671.10241	42.79711000000003	251.6562	806.40578	-148.20585999999997	3.801629999999993	467.02414	-106.15755999999998	20.217739999999996	469.61616	-41.414699999999975	136.16738	597.77708	39.62908000000003	305.80059	569.26488	22.29136000000002	289.90288	542.48069	97.74790000000002	320.37349	550.48714	61.63244000000002	175.04765	588.67622	44.58272000000002	400.78367	529.63579	71.13651	-56.62121	414.37737	-32.14102999999997	99.24551	339.66963	-34.790649999999985	68.65969	321.8135	-108.34637999999998	103.79594	319.50949	-75.85973999999999	-22.521760000000004	395.19643	-41.64509999999998	173.72284	278.03719	-94.98308	
357	5.933	0.0	1249.98655	7.653960137173716E-14	94.06147000000001	1335.17756	132.36575000000008	93.60066999999998	1319.22225	-141.69700999999992	69.9269	1411.72851	103.91114000000009	69.52369999999999	1398.53802	-122.28567999999991	-70.61811	1214.1015	58.982820000000075	-70.84851	1207.47745	-54.14438999999992	-59.04042	1289.90364	-2.2464199999999175	5.93284	1375.95865	-7.084849999999916	78.45176	1471.51774	-13.075289999999915	145.95945	1558.20636	-18.662529999999915	416.79658	1582.80174	-25.05617999999993	299.06134	1692.18492	-28.339399999999916	221.53119	1636.65812	-24.019369999999913	314.03745	1502.67956	-18.950539999999926	346.06328	1723.98035	-29.433809999999916	593.57225	1824.55067	-70.33009999999993	527.85018	1765.68305	18.028930000000074	497.37956	1764.81904	-123.09207999999991	480.32984	1811.41777	-45.792329999999914	346.35128	1730.08599	178.61888000000008	334.19759	1709.17704	-240.2513199999999	428.08627	1438.2823	172.68604000000005	411.55495	1433.50147	114.56722000000006	413.91656	1420.25337	-232.47525999999993	401.47488	1416.39414	-173.26203999999996	516.2725	1201.1414	100.51272000000004	565.40565	1221.81995	108.40398000000005	393.06522	1431.65825	142.67622000000006	511.77967	1183.57328	-182.47810999999993	558.6664	1204.88543	-198.20301999999995	381.77553	1413.74452	-197.62701999999993	696.67699	1088.12939	174.70205	605.66834	1103.3935	135.99457000000004	564.02324	1166.92676	103.27754000000004	674.38563	1075.3421	-294.79891	594.55146	1088.01419	-235.87368999999998	559.53041	1150.51064	-194.45898999999997	26.38099000000001	1238.29367	166.0043900000001	390.8764	1045.67789	144.98024000000004	395.13883	1049.19151	65.20367000000005	411.38215	1088.41739	105.17835000000004	5.068839999999989	1220.66794	-168.4236099999999	221.93439	870.16943	-190.77256999999994	236.6801	867.00141	-112.20559999999996	265.7107	894.70721	-154.54190999999997	430.15988	999.82796	97.80550000000002	211.50871	638.90378	115.60403000000002	208.8591	643.45421	48.96035000000003	260.75707	813.77863	-153.96589999999998	-6.739250000000006	491.33152	-100.28231999999997	11.001679999999999	494.26914	-35.885059999999974	156.55792	568.34327	48.038740000000026	326.82474	546.80072	26.726590000000012	313.92225	520.18933	102.87434000000002	343.12566	529.05979	65.95247000000002	195.9566	560.91282	52.12837000000002	424.45744	511.83727	73.61333	-68.48689	442.48637	-25.28657999999997	84.2118	361.32739	-27.417799999999982	52.53157999999999	343.70166	-100.57031999999998	87.72543	340.41844	-68.19888999999999	-35.25145	421.75022	-34.61784999999997	155.80912	295.72052	-86.97662	
358	5.95	0.0	1249.98655	7.653960137173716E-14	94.00387000000002	1334.31356	132.9417500000001	93.42786999999998	1320.43186	-141.1786099999999	69.7541	1411.03731	105.12075000000009	69.23569999999998	1399.57482	-121.13366999999991	-70.56051	1213.52549	58.69482000000008	-70.79091	1207.82305	-54.43238999999992	-59.09802	1289.84604	-1.9008099999999175	5.76004	1376.01625	-6.163239999999916	78.10616	1471.69054	-11.923289999999914	145.44104	1558.49436	-17.510529999999914	416.22058	1583.49294	-25.28657999999993	298.37014	1692.64572	-27.878599999999913	220.89758	1637.06132	-23.097769999999915	313.63425	1503.19797	-18.662529999999926	345.31447	1724.55635	-29.261009999999914	593.05385	1824.66587	-71.07890999999992	527.27418	1766.20145	17.568130000000075	496.63076	1765.04944	-123.49527999999991	479.81144	1811.87858	-46.368329999999915	346.35128	1730.7772	178.9068800000001	333.16079	1708.94664	-240.0209199999999	428.54707	1438.97351	171.59163000000007	411.03654	1434.07747	113.76081000000006	413.51336	1420.42617	-232.64806999999993	401.24447	1416.45174	-173.43483999999995	516.0421	1201.4294	100.80072000000004	565.11765	1222.10795	108.69198000000004	393.06522	1432.29186	141.75462000000005	511.89487	1183.91888	-182.13249999999994	558.724	1205.28863	-197.79981999999995	381.42993	1413.80213	-197.79981999999995	696.27379	1088.35979	175.22045	605.32274	1103.6815	136.45538000000002	563.79284	1167.21476	103.62314000000005	674.67363	1075.8029	-294.28051	594.78186	1088.41739	-235.41288999999998	559.64561	1150.91384	-194.05578999999997	25.45938000000001	1235.01044	165.71639000000008	381.25713	1027.18816	141.81222000000002	385.92276	1032.02659	62.093240000000044	403.72129	1069.69726	102.87434000000005	6.508849999999989	1223.37516	-168.94200999999993	237.0257	882.09272	-197.33900999999997	251.253	877.71509	-118.77204999999995	279.4772	907.4945	-160.24434999999997	423.70863	983.93025	96.07749000000003	225.10241	612.00438	120.32726000000002	222.51039	614.9996	53.56838000000002	271.81635	824.0315	-159.49553999999998	-12.556890000000005	518.17331	-96.48068999999997	6.105639999999998	521.39893	-32.37142999999997	171.59163	538.33346	54.43239000000003	341.85845	521.85974	29.08821000000001	331.66318	495.59395	105.75436000000002	359.65698	505.04042	68.02609	211.27831	532.17021	57.60041000000002	441.67996	490.40991	73.90133	-76.09014	473.07219	-20.275349999999968	72.80692	385.17396	-21.888159999999978	39.917089999999995	367.60583	-94.52227999999997	75.11094	363.3434	-62.266049999999986	-43.83391	450.72323	-29.491409999999966	141.00581	315.36226	-80.58298	
359	5.967	0.0	1249.98655	7.653960137173716E-14	94.17667000000002	1333.39195	133.40256000000008	93.02466999999999	1321.64147	-140.83300999999992	69.7541	1410.2885	106.21516000000008	68.83248999999999	1400.61163	-120.15445999999991	-70.3877	1213.00709	58.57962000000008	-70.84851	1208.11105	-54.60518999999992	-59.15562	1289.78844	-1.4400099999999174	5.58724	1376.07386	-5.241639999999916	77.76056	1471.86334	-10.886479999999915	144.92264	1558.78236	-16.531319999999912	415.58698	1584.29935	-26.03538999999993	297.50613	1693.27933	-27.705799999999915	220.14878	1637.52213	-22.464159999999914	313.17344	1503.83157	-18.720129999999926	344.39287	1725.30516	-29.433809999999916	592.01704	1825.47227	-71.82770999999993	526.29497	1767.18066	16.934520000000074	495.65155	1765.74065	-124.18648999999992	478.77463	1812.74258	-47.117139999999914	346.06328	1731.5836	178.9068800000001	331.77838	1709.00424	-240.0785199999999	428.83507	1439.83751	171.01562000000007	410.51814	1434.59587	113.47281000000005	412.87976	1420.88698	-232.59046999999995	401.01407	1417.02775	-173.31963999999994	515.75409	1201.83261	101.60713000000004	564.88725	1222.45355	109.49838000000004	393.00761	1433.04066	141.29381000000006	511.77967	1184.66768	-181.38369999999995	558.6664	1206.09504	-197.05100999999993	380.96913	1414.26293	-197.79981999999995	695.87058	1088.6478	176.25726000000003	604.91953	1104.02711	137.43458000000004	563.44724	1167.56036	104.48715000000004	674.78883	1076.55171	-293.2437	594.83946	1089.1662	-234.49127999999996	559.64561	1151.66265	-193.24937999999997	24.30737000000001	1231.61202	165.4283800000001	367.95144	1004.43599	138.12579000000002	373.02027	1010.42644	58.52202000000004	392.77721	1046.31149	99.99432000000004	7.948859999999989	1226.37038	-169.4028099999999	253.96022	896.66562	-203.90545999999998	267.84192	891.02078	-125.33849999999995	294.97171	923.04661	-165.77398999999997	412.99496	963.7701	93.08227000000002	232.87847	582.80097	121.82487000000003	230.28645	584.87459	55.06599000000002	285.29484	837.4524	-164.56437999999997	-13.363300000000006	546.91592	-95.44387999999996	5.587239999999999	550.37194	-31.449829999999967	180.05889	507.34443	57.370010000000015	349.98011	493.98114	28.339400000000012	341.97365	467.94575	105.35115000000002	368.93064	477.73782	66.98928	219.91837	501.9876	59.674030000000016	451.41443	464.66253	71.19411	-78.62456	506.94123	-17.452919999999963	65.26127	411.09414	-18.37452999999998	30.528219999999994	393.46842	-90.20224999999998	65.83727	388.16918	-58.23401999999999	-47.80834	482.63386	-26.38098999999997	128.73692	336.50161	-75.91734	
